<mxfile host="app.diagrams.net" modified="2022-11-23T15:04:18.171Z" agent="5.0 (Windows NT 10.0; Win64; x64) AppleWebKit/537.36 (KHTML, like Gecko) Chrome/107.0.0.0 Safari/537.36" etag="hSvvfg7imibsO2sD0C-2" version="20.6.0" type="github">
  <diagram id="C5RBs43oDa-KdzZeNtuy" name="Page-1">
    <mxGraphModel dx="823" dy="469" grid="1" gridSize="10" guides="1" tooltips="1" connect="1" arrows="1" fold="1" page="1" pageScale="1" pageWidth="827" pageHeight="1169" math="0" shadow="0">
      <root>
        <mxCell id="WIyWlLk6GJQsqaUBKTNV-0" />
        <mxCell id="WIyWlLk6GJQsqaUBKTNV-1" parent="WIyWlLk6GJQsqaUBKTNV-0" />
        <mxCell id="WIyWlLk6GJQsqaUBKTNV-3" value="&lt;font style=&quot;font-size: 14px;&quot;&gt;&lt;b&gt;主页&lt;/b&gt;&lt;/font&gt;" style="rounded=1;whiteSpace=wrap;html=1;fontSize=12;glass=0;strokeWidth=1;shadow=0;" parent="WIyWlLk6GJQsqaUBKTNV-1" vertex="1">
          <mxGeometry x="160" y="70" width="120" height="60" as="geometry" />
        </mxCell>
        <mxCell id="rD7vNbKPlzc2s6sFT6nV-2" value="" style="strokeWidth=2;html=1;shape=mxgraph.flowchart.annotation_2;align=left;labelPosition=right;pointerEvents=1;" vertex="1" parent="WIyWlLk6GJQsqaUBKTNV-1">
          <mxGeometry x="280" y="50" width="50" height="100" as="geometry" />
        </mxCell>
        <mxCell id="rD7vNbKPlzc2s6sFT6nV-3" value="&lt;font style=&quot;font-size: 14px;&quot;&gt;健康码&lt;/font&gt;" style="rounded=1;whiteSpace=wrap;html=1;" vertex="1" parent="WIyWlLk6GJQsqaUBKTNV-1">
          <mxGeometry x="330" y="20" width="120" height="60" as="geometry" />
        </mxCell>
        <mxCell id="rD7vNbKPlzc2s6sFT6nV-4" value="&lt;font style=&quot;font-size: 14px;&quot;&gt;微信支付&lt;/font&gt;" style="rounded=1;whiteSpace=wrap;html=1;" vertex="1" parent="WIyWlLk6GJQsqaUBKTNV-1">
          <mxGeometry x="330" y="110" width="120" height="60" as="geometry" />
        </mxCell>
        <mxCell id="rD7vNbKPlzc2s6sFT6nV-5" value="&lt;font style=&quot;font-size: 14px;&quot;&gt;&lt;b&gt;健康&lt;/b&gt;&lt;/font&gt;" style="rounded=1;whiteSpace=wrap;html=1;fontSize=12;glass=0;strokeWidth=1;shadow=0;" vertex="1" parent="WIyWlLk6GJQsqaUBKTNV-1">
          <mxGeometry x="150" y="490" width="120" height="60" as="geometry" />
        </mxCell>
        <mxCell id="rD7vNbKPlzc2s6sFT6nV-6" value="" style="strokeWidth=2;html=1;shape=mxgraph.flowchart.annotation_2;align=left;labelPosition=right;pointerEvents=1;fontFamily=Helvetica;fontSize=14;" vertex="1" parent="WIyWlLk6GJQsqaUBKTNV-1">
          <mxGeometry x="270" y="230" width="60" height="550" as="geometry" />
        </mxCell>
        <mxCell id="rD7vNbKPlzc2s6sFT6nV-7" value="&lt;font style=&quot;font-size: 14px;&quot;&gt;锻炼教程&lt;/font&gt;" style="rounded=1;whiteSpace=wrap;html=1;" vertex="1" parent="WIyWlLk6GJQsqaUBKTNV-1">
          <mxGeometry x="330" y="555" width="120" height="60" as="geometry" />
        </mxCell>
        <mxCell id="rD7vNbKPlzc2s6sFT6nV-8" value="&lt;font style=&quot;font-size: 14px;&quot;&gt;健康宝典&lt;/font&gt;" style="rounded=1;whiteSpace=wrap;html=1;" vertex="1" parent="WIyWlLk6GJQsqaUBKTNV-1">
          <mxGeometry x="330" y="200" width="120" height="60" as="geometry" />
        </mxCell>
        <mxCell id="rD7vNbKPlzc2s6sFT6nV-11" value="&lt;font style=&quot;font-size: 14px;&quot;&gt;在线挂号&lt;/font&gt;" style="rounded=1;whiteSpace=wrap;html=1;" vertex="1" parent="WIyWlLk6GJQsqaUBKTNV-1">
          <mxGeometry x="330" y="743.75" width="120" height="60" as="geometry" />
        </mxCell>
        <mxCell id="rD7vNbKPlzc2s6sFT6nV-19" value="" style="endArrow=none;html=1;rounded=0;fontFamily=Helvetica;fontSize=14;strokeWidth=2;entryX=0;entryY=0.5;entryDx=0;entryDy=0;exitX=0.485;exitY=0.646;exitDx=0;exitDy=0;exitPerimeter=0;" edge="1" parent="WIyWlLk6GJQsqaUBKTNV-1" source="rD7vNbKPlzc2s6sFT6nV-6" target="rD7vNbKPlzc2s6sFT6nV-7">
          <mxGeometry width="50" height="50" relative="1" as="geometry">
            <mxPoint x="300" y="575" as="sourcePoint" />
            <mxPoint x="340" y="369.5" as="targetPoint" />
          </mxGeometry>
        </mxCell>
        <mxCell id="rD7vNbKPlzc2s6sFT6nV-37" style="edgeStyle=orthogonalEdgeStyle;rounded=0;orthogonalLoop=1;jettySize=auto;html=1;exitX=1;exitY=0;exitDx=0;exitDy=0;exitPerimeter=0;entryX=0;entryY=0.5;entryDx=0;entryDy=0;strokeWidth=2;fontFamily=Helvetica;fontSize=14;" edge="1" parent="WIyWlLk6GJQsqaUBKTNV-1" source="rD7vNbKPlzc2s6sFT6nV-27" target="rD7vNbKPlzc2s6sFT6nV-28">
          <mxGeometry relative="1" as="geometry" />
        </mxCell>
        <mxCell id="rD7vNbKPlzc2s6sFT6nV-38" style="edgeStyle=orthogonalEdgeStyle;rounded=0;orthogonalLoop=1;jettySize=auto;html=1;entryX=0;entryY=0.5;entryDx=0;entryDy=0;strokeWidth=2;fontFamily=Helvetica;fontSize=14;" edge="1" parent="WIyWlLk6GJQsqaUBKTNV-1" target="rD7vNbKPlzc2s6sFT6nV-30">
          <mxGeometry relative="1" as="geometry">
            <mxPoint x="490" y="270" as="sourcePoint" />
          </mxGeometry>
        </mxCell>
        <mxCell id="rD7vNbKPlzc2s6sFT6nV-27" value="" style="strokeWidth=2;html=1;shape=mxgraph.flowchart.annotation_2;align=left;labelPosition=right;pointerEvents=1;fontFamily=Helvetica;fontSize=14;" vertex="1" parent="WIyWlLk6GJQsqaUBKTNV-1">
          <mxGeometry x="450" y="170" width="50" height="100" as="geometry" />
        </mxCell>
        <mxCell id="rD7vNbKPlzc2s6sFT6nV-28" value="养生妙招" style="rounded=1;whiteSpace=wrap;html=1;fontFamily=Helvetica;fontSize=14;" vertex="1" parent="WIyWlLk6GJQsqaUBKTNV-1">
          <mxGeometry x="510" y="150" width="70" height="40" as="geometry" />
        </mxCell>
        <mxCell id="rD7vNbKPlzc2s6sFT6nV-29" value="健康自测" style="rounded=1;whiteSpace=wrap;html=1;fontFamily=Helvetica;fontSize=14;" vertex="1" parent="WIyWlLk6GJQsqaUBKTNV-1">
          <mxGeometry x="510" y="200" width="70" height="40" as="geometry" />
        </mxCell>
        <mxCell id="rD7vNbKPlzc2s6sFT6nV-30" value="健康食谱" style="rounded=1;whiteSpace=wrap;html=1;fontFamily=Helvetica;fontSize=14;" vertex="1" parent="WIyWlLk6GJQsqaUBKTNV-1">
          <mxGeometry x="510" y="250" width="70" height="40" as="geometry" />
        </mxCell>
        <mxCell id="rD7vNbKPlzc2s6sFT6nV-39" value="" style="endArrow=classic;html=1;rounded=0;strokeWidth=2;fontFamily=Helvetica;fontSize=14;entryX=0;entryY=0.5;entryDx=0;entryDy=0;" edge="1" parent="WIyWlLk6GJQsqaUBKTNV-1" target="rD7vNbKPlzc2s6sFT6nV-29">
          <mxGeometry width="50" height="50" relative="1" as="geometry">
            <mxPoint x="470" y="220" as="sourcePoint" />
            <mxPoint x="430" y="450" as="targetPoint" />
          </mxGeometry>
        </mxCell>
        <mxCell id="rD7vNbKPlzc2s6sFT6nV-55" value="" style="strokeWidth=2;html=1;shape=mxgraph.flowchart.annotation_2;align=left;labelPosition=right;pointerEvents=1;fontFamily=Helvetica;fontSize=12;" vertex="1" parent="WIyWlLk6GJQsqaUBKTNV-1">
          <mxGeometry x="450" y="687.5" width="50" height="171.25" as="geometry" />
        </mxCell>
        <mxCell id="rD7vNbKPlzc2s6sFT6nV-57" value="&lt;font style=&quot;font-size: 14px;&quot;&gt;线上问诊&lt;/font&gt;" style="rounded=1;whiteSpace=wrap;html=1;" vertex="1" parent="WIyWlLk6GJQsqaUBKTNV-1">
          <mxGeometry x="330" y="360" width="120" height="60" as="geometry" />
        </mxCell>
        <mxCell id="rD7vNbKPlzc2s6sFT6nV-58" style="edgeStyle=orthogonalEdgeStyle;rounded=0;orthogonalLoop=1;jettySize=auto;html=1;exitX=0.5;exitY=1;exitDx=0;exitDy=0;exitPerimeter=0;strokeWidth=2;fontFamily=Helvetica;fontSize=12;" edge="1" parent="WIyWlLk6GJQsqaUBKTNV-1">
          <mxGeometry relative="1" as="geometry">
            <mxPoint x="475" y="320" as="sourcePoint" />
            <mxPoint x="475" y="320" as="targetPoint" />
          </mxGeometry>
        </mxCell>
        <mxCell id="rD7vNbKPlzc2s6sFT6nV-61" value="心脑血管" style="rounded=1;whiteSpace=wrap;html=1;fontFamily=Helvetica;fontSize=12;" vertex="1" parent="WIyWlLk6GJQsqaUBKTNV-1">
          <mxGeometry x="500" y="670" width="60" height="30" as="geometry" />
        </mxCell>
        <mxCell id="rD7vNbKPlzc2s6sFT6nV-62" value="外科" style="rounded=1;whiteSpace=wrap;html=1;fontFamily=Helvetica;fontSize=12;" vertex="1" parent="WIyWlLk6GJQsqaUBKTNV-1">
          <mxGeometry x="500" y="758.13" width="60" height="30" as="geometry" />
        </mxCell>
        <mxCell id="rD7vNbKPlzc2s6sFT6nV-63" value="内科" style="rounded=1;whiteSpace=wrap;html=1;fontFamily=Helvetica;fontSize=12;" vertex="1" parent="WIyWlLk6GJQsqaUBKTNV-1">
          <mxGeometry x="500" y="713.75" width="60" height="30" as="geometry" />
        </mxCell>
        <mxCell id="rD7vNbKPlzc2s6sFT6nV-64" value="耳鼻喉科" style="rounded=1;whiteSpace=wrap;html=1;fontFamily=Helvetica;fontSize=12;" vertex="1" parent="WIyWlLk6GJQsqaUBKTNV-1">
          <mxGeometry x="500" y="800" width="60" height="30" as="geometry" />
        </mxCell>
        <mxCell id="rD7vNbKPlzc2s6sFT6nV-72" value="神经科" style="rounded=1;whiteSpace=wrap;html=1;fontFamily=Helvetica;fontSize=12;" vertex="1" parent="WIyWlLk6GJQsqaUBKTNV-1">
          <mxGeometry x="500" y="840" width="60" height="30" as="geometry" />
        </mxCell>
        <mxCell id="rD7vNbKPlzc2s6sFT6nV-75" value="" style="endArrow=none;html=1;rounded=0;strokeWidth=2;fontFamily=Helvetica;fontSize=12;entryX=0;entryY=0.5;entryDx=0;entryDy=0;" edge="1" parent="WIyWlLk6GJQsqaUBKTNV-1" target="rD7vNbKPlzc2s6sFT6nV-63">
          <mxGeometry width="50" height="50" relative="1" as="geometry">
            <mxPoint x="475" y="729" as="sourcePoint" />
            <mxPoint x="500" y="713.75" as="targetPoint" />
          </mxGeometry>
        </mxCell>
        <mxCell id="rD7vNbKPlzc2s6sFT6nV-77" value="" style="endArrow=none;html=1;rounded=0;strokeWidth=2;fontFamily=Helvetica;fontSize=12;entryX=0;entryY=0.5;entryDx=0;entryDy=0;" edge="1" parent="WIyWlLk6GJQsqaUBKTNV-1" target="rD7vNbKPlzc2s6sFT6nV-64">
          <mxGeometry width="50" height="50" relative="1" as="geometry">
            <mxPoint x="475" y="815" as="sourcePoint" />
            <mxPoint x="500" y="813.25" as="targetPoint" />
          </mxGeometry>
        </mxCell>
        <mxCell id="rD7vNbKPlzc2s6sFT6nV-78" value="" style="endArrow=none;html=1;rounded=0;strokeWidth=2;fontFamily=Helvetica;fontSize=12;entryX=0;entryY=0.5;entryDx=0;entryDy=0;exitX=0.473;exitY=0.498;exitDx=0;exitDy=0;exitPerimeter=0;" edge="1" parent="WIyWlLk6GJQsqaUBKTNV-1" source="rD7vNbKPlzc2s6sFT6nV-55" target="rD7vNbKPlzc2s6sFT6nV-62">
          <mxGeometry width="50" height="50" relative="1" as="geometry">
            <mxPoint x="475" y="758.75" as="sourcePoint" />
            <mxPoint x="500" y="758.25" as="targetPoint" />
          </mxGeometry>
        </mxCell>
        <mxCell id="rD7vNbKPlzc2s6sFT6nV-81" value="" style="strokeWidth=2;html=1;shape=mxgraph.flowchart.annotation_2;align=left;labelPosition=right;pointerEvents=1;fontFamily=Helvetica;fontSize=12;" vertex="1" parent="WIyWlLk6GJQsqaUBKTNV-1">
          <mxGeometry x="450" y="510" width="50" height="120" as="geometry" />
        </mxCell>
        <mxCell id="rD7vNbKPlzc2s6sFT6nV-84" value="跑步" style="rounded=1;whiteSpace=wrap;html=1;fontFamily=Helvetica;fontSize=12;" vertex="1" parent="WIyWlLk6GJQsqaUBKTNV-1">
          <mxGeometry x="500" y="500" width="60" height="30" as="geometry" />
        </mxCell>
        <mxCell id="rD7vNbKPlzc2s6sFT6nV-85" value="游泳" style="rounded=1;whiteSpace=wrap;html=1;fontFamily=Helvetica;fontSize=12;" vertex="1" parent="WIyWlLk6GJQsqaUBKTNV-1">
          <mxGeometry x="500" y="540" width="60" height="30" as="geometry" />
        </mxCell>
        <mxCell id="rD7vNbKPlzc2s6sFT6nV-86" value="健康操" style="rounded=1;whiteSpace=wrap;html=1;fontFamily=Helvetica;fontSize=12;" vertex="1" parent="WIyWlLk6GJQsqaUBKTNV-1">
          <mxGeometry x="500" y="580" width="60" height="30" as="geometry" />
        </mxCell>
        <mxCell id="rD7vNbKPlzc2s6sFT6nV-87" value="拉伸" style="rounded=1;whiteSpace=wrap;html=1;fontFamily=Helvetica;fontSize=12;" vertex="1" parent="WIyWlLk6GJQsqaUBKTNV-1">
          <mxGeometry x="500" y="620" width="60" height="30" as="geometry" />
        </mxCell>
        <mxCell id="rD7vNbKPlzc2s6sFT6nV-88" value="" style="endArrow=none;html=1;rounded=0;strokeWidth=2;fontFamily=Helvetica;fontSize=12;" edge="1" parent="WIyWlLk6GJQsqaUBKTNV-1">
          <mxGeometry width="50" height="50" relative="1" as="geometry">
            <mxPoint x="475" y="600" as="sourcePoint" />
            <mxPoint x="500" y="600" as="targetPoint" />
          </mxGeometry>
        </mxCell>
        <mxCell id="rD7vNbKPlzc2s6sFT6nV-89" value="" style="endArrow=none;html=1;rounded=0;strokeWidth=2;fontFamily=Helvetica;fontSize=12;" edge="1" parent="WIyWlLk6GJQsqaUBKTNV-1">
          <mxGeometry width="50" height="50" relative="1" as="geometry">
            <mxPoint x="475" y="555" as="sourcePoint" />
            <mxPoint x="500" y="554.5" as="targetPoint" />
          </mxGeometry>
        </mxCell>
        <mxCell id="rD7vNbKPlzc2s6sFT6nV-93" value="" style="strokeWidth=2;html=1;shape=mxgraph.flowchart.annotation_2;align=left;labelPosition=right;pointerEvents=1;fontFamily=Helvetica;fontSize=12;" vertex="1" parent="WIyWlLk6GJQsqaUBKTNV-1">
          <mxGeometry x="450" y="330" width="50" height="130" as="geometry" />
        </mxCell>
        <mxCell id="rD7vNbKPlzc2s6sFT6nV-94" value="语音" style="rounded=1;whiteSpace=wrap;html=1;fontFamily=Helvetica;fontSize=12;" vertex="1" parent="WIyWlLk6GJQsqaUBKTNV-1">
          <mxGeometry x="500" y="310" width="60" height="30" as="geometry" />
        </mxCell>
        <mxCell id="rD7vNbKPlzc2s6sFT6nV-96" value="通话" style="rounded=1;whiteSpace=wrap;html=1;fontFamily=Helvetica;fontSize=12;" vertex="1" parent="WIyWlLk6GJQsqaUBKTNV-1">
          <mxGeometry x="500" y="350" width="60" height="30" as="geometry" />
        </mxCell>
        <mxCell id="rD7vNbKPlzc2s6sFT6nV-97" value="图片" style="rounded=1;whiteSpace=wrap;html=1;fontFamily=Helvetica;fontSize=12;" vertex="1" parent="WIyWlLk6GJQsqaUBKTNV-1">
          <mxGeometry x="500" y="400" width="60" height="30" as="geometry" />
        </mxCell>
        <mxCell id="rD7vNbKPlzc2s6sFT6nV-98" value="文字" style="rounded=1;whiteSpace=wrap;html=1;fontFamily=Helvetica;fontSize=12;" vertex="1" parent="WIyWlLk6GJQsqaUBKTNV-1">
          <mxGeometry x="500" y="440" width="60" height="30" as="geometry" />
        </mxCell>
        <mxCell id="rD7vNbKPlzc2s6sFT6nV-105" value="" style="endArrow=none;html=1;rounded=0;strokeWidth=2;fontFamily=Helvetica;fontSize=12;" edge="1" parent="WIyWlLk6GJQsqaUBKTNV-1">
          <mxGeometry width="50" height="50" relative="1" as="geometry">
            <mxPoint x="300" y="389.38" as="sourcePoint" />
            <mxPoint x="330" y="389.38" as="targetPoint" />
          </mxGeometry>
        </mxCell>
        <mxCell id="rD7vNbKPlzc2s6sFT6nV-110" value="" style="endArrow=none;html=1;rounded=0;strokeWidth=2;fontFamily=Helvetica;fontSize=12;exitX=0.477;exitY=0.267;exitDx=0;exitDy=0;exitPerimeter=0;" edge="1" parent="WIyWlLk6GJQsqaUBKTNV-1" source="rD7vNbKPlzc2s6sFT6nV-93">
          <mxGeometry width="50" height="50" relative="1" as="geometry">
            <mxPoint x="480" y="360" as="sourcePoint" />
            <mxPoint x="500" y="364.47" as="targetPoint" />
          </mxGeometry>
        </mxCell>
        <mxCell id="rD7vNbKPlzc2s6sFT6nV-111" value="" style="endArrow=none;html=1;rounded=0;strokeWidth=2;fontFamily=Helvetica;fontSize=12;" edge="1" parent="WIyWlLk6GJQsqaUBKTNV-1">
          <mxGeometry width="50" height="50" relative="1" as="geometry">
            <mxPoint x="475" y="414" as="sourcePoint" />
            <mxPoint x="500" y="414.47" as="targetPoint" />
          </mxGeometry>
        </mxCell>
        <mxCell id="rD7vNbKPlzc2s6sFT6nV-112" value="&lt;font style=&quot;font-size: 14px;&quot;&gt;&lt;b&gt;个人&lt;/b&gt;&lt;/font&gt;" style="rounded=1;whiteSpace=wrap;html=1;fontFamily=Helvetica;fontSize=12;" vertex="1" parent="WIyWlLk6GJQsqaUBKTNV-1">
          <mxGeometry x="150" y="1035" width="120" height="60" as="geometry" />
        </mxCell>
        <mxCell id="rD7vNbKPlzc2s6sFT6nV-113" value="" style="strokeWidth=2;html=1;shape=mxgraph.flowchart.annotation_2;align=left;labelPosition=right;pointerEvents=1;fontFamily=Helvetica;fontSize=14;" vertex="1" parent="WIyWlLk6GJQsqaUBKTNV-1">
          <mxGeometry x="270" y="940" width="50" height="250" as="geometry" />
        </mxCell>
        <mxCell id="rD7vNbKPlzc2s6sFT6nV-114" value="我的收藏" style="rounded=1;whiteSpace=wrap;html=1;fontFamily=Helvetica;fontSize=14;" vertex="1" parent="WIyWlLk6GJQsqaUBKTNV-1">
          <mxGeometry x="320" y="920" width="80" height="40" as="geometry" />
        </mxCell>
        <mxCell id="rD7vNbKPlzc2s6sFT6nV-115" value="设置" style="rounded=1;whiteSpace=wrap;html=1;fontFamily=Helvetica;fontSize=14;" vertex="1" parent="WIyWlLk6GJQsqaUBKTNV-1">
          <mxGeometry x="320" y="980" width="80" height="40" as="geometry" />
        </mxCell>
        <mxCell id="rD7vNbKPlzc2s6sFT6nV-116" value="信息修改" style="rounded=1;whiteSpace=wrap;html=1;fontFamily=Helvetica;fontSize=14;" vertex="1" parent="WIyWlLk6GJQsqaUBKTNV-1">
          <mxGeometry x="320" y="1045" width="80" height="40" as="geometry" />
        </mxCell>
        <mxCell id="rD7vNbKPlzc2s6sFT6nV-117" value="关联账号" style="rounded=1;whiteSpace=wrap;html=1;fontFamily=Helvetica;fontSize=14;" vertex="1" parent="WIyWlLk6GJQsqaUBKTNV-1">
          <mxGeometry x="320" y="1170" width="80" height="40" as="geometry" />
        </mxCell>
        <mxCell id="rD7vNbKPlzc2s6sFT6nV-118" value="" style="strokeWidth=2;html=1;shape=mxgraph.flowchart.annotation_2;align=left;labelPosition=right;pointerEvents=1;fontFamily=Helvetica;fontSize=14;" vertex="1" parent="WIyWlLk6GJQsqaUBKTNV-1">
          <mxGeometry x="400" y="1115" width="50" height="175" as="geometry" />
        </mxCell>
        <mxCell id="rD7vNbKPlzc2s6sFT6nV-119" value="老伴" style="rounded=1;whiteSpace=wrap;html=1;fontFamily=Helvetica;fontSize=14;" vertex="1" parent="WIyWlLk6GJQsqaUBKTNV-1">
          <mxGeometry x="450" y="1095" width="60" height="40" as="geometry" />
        </mxCell>
        <mxCell id="rD7vNbKPlzc2s6sFT6nV-121" value="儿子" style="rounded=1;whiteSpace=wrap;html=1;fontFamily=Helvetica;fontSize=14;" vertex="1" parent="WIyWlLk6GJQsqaUBKTNV-1">
          <mxGeometry x="450" y="1160" width="60" height="40" as="geometry" />
        </mxCell>
        <mxCell id="rD7vNbKPlzc2s6sFT6nV-122" value="女儿" style="rounded=1;whiteSpace=wrap;html=1;fontFamily=Helvetica;fontSize=14;" vertex="1" parent="WIyWlLk6GJQsqaUBKTNV-1">
          <mxGeometry x="450" y="1220" width="60" height="40" as="geometry" />
        </mxCell>
        <mxCell id="rD7vNbKPlzc2s6sFT6nV-123" value="添加" style="rounded=1;whiteSpace=wrap;html=1;fontFamily=Helvetica;fontSize=14;" vertex="1" parent="WIyWlLk6GJQsqaUBKTNV-1">
          <mxGeometry x="450" y="1280" width="60" height="40" as="geometry" />
        </mxCell>
        <mxCell id="rD7vNbKPlzc2s6sFT6nV-124" value="" style="endArrow=none;html=1;rounded=0;strokeWidth=2;fontFamily=Helvetica;fontSize=14;entryX=0;entryY=0.5;entryDx=0;entryDy=0;exitX=0.466;exitY=0.368;exitDx=0;exitDy=0;exitPerimeter=0;" edge="1" parent="WIyWlLk6GJQsqaUBKTNV-1" source="rD7vNbKPlzc2s6sFT6nV-118" target="rD7vNbKPlzc2s6sFT6nV-121">
          <mxGeometry width="50" height="50" relative="1" as="geometry">
            <mxPoint x="430" y="1180" as="sourcePoint" />
            <mxPoint x="450" y="1170" as="targetPoint" />
          </mxGeometry>
        </mxCell>
        <mxCell id="rD7vNbKPlzc2s6sFT6nV-125" value="" style="endArrow=none;html=1;rounded=0;strokeWidth=2;fontFamily=Helvetica;fontSize=14;" edge="1" parent="WIyWlLk6GJQsqaUBKTNV-1">
          <mxGeometry width="50" height="50" relative="1" as="geometry">
            <mxPoint x="425" y="1239" as="sourcePoint" />
            <mxPoint x="450" y="1239.47" as="targetPoint" />
          </mxGeometry>
        </mxCell>
      </root>
    </mxGraphModel>
  </diagram>
</mxfile>
